<mxfile host="app.diagrams.net" modified="2024-02-27T00:20:15.038Z" agent="Mozilla/5.0 (Windows NT 10.0; Win64; x64) AppleWebKit/537.36 (KHTML, like Gecko) Chrome/121.0.0.0 Safari/537.36" version="23.1.7" etag="n7qVxjwTe9a6egX0kwRO" type="github">
  <diagram name="PÃ¡gina-1" id="jI4Mom-bvlGWx-AOMdB-">
    <mxGraphModel>
      <root>
        <mxCell id="0" />
        <mxCell id="1" parent="0" />
      </root>
    </mxGraphModel>
  </diagram>
</mxfile>
